<svg width="1200" height="700" viewBox="0 0 1200 700" fill="none" xmlns="http://www.w3.org/2000/svg">
  <defs>
    <linearGradient id="bg5" x1="0" y1="0" x2="1200" y2="700" gradientUnits="userSpaceOnUse">
      <stop stop-color="#FFF8F2"/>
      <stop offset="0.46" stop-color="#FFFFFF"/>
      <stop offset="1" stop-color="#F7F4FF"/>
    </linearGradient>
    <linearGradient id="cta5" x1="220" y1="250" x2="655" y2="420" gradientUnits="userSpaceOnUse">
      <stop stop-color="#F15E7A"/>
      <stop offset="1" stop-color="#F39A49"/>
    </linearGradient>
  </defs>

  <rect width="1200" height="700" fill="url(#bg5)"/>
  <circle cx="1065" cy="130" r="118" fill="#FFE7DE"/>
  <circle cx="188" cy="560" r="98" fill="#FFE9F3"/>

  <rect x="56" y="44" width="1088" height="72" rx="24" fill="white" stroke="#F2E4E2"/>
  <rect x="88" y="66" width="176" height="28" rx="14" fill="url(#cta5)"/>
  <rect x="792" y="68" width="320" height="24" rx="12" fill="#F7ECEA"/>

  <rect x="72" y="146" width="1056" height="504" rx="34" fill="white" stroke="#F2E4E2"/>

  <rect x="114" y="186" width="650" height="262" rx="30" fill="#FFF7F4" stroke="#F5E4E2"/>
  <rect x="144" y="226" width="220" height="18" rx="9" fill="#F7C8BF"/>
  <rect x="144" y="258" width="496" height="42" rx="16" fill="#F7B4A8"/>
  <rect x="144" y="316" width="350" height="16" rx="8" fill="#F1D8D2"/>
  <rect x="144" y="352" width="200" height="44" rx="16" fill="url(#cta5)"/>
  <rect x="360" y="352" width="200" height="44" rx="16" fill="white" stroke="#EECAC4"/>

  <rect x="792" y="186" width="292" height="262" rx="30" fill="#131A28"/>
  <rect x="824" y="224" width="198" height="14" rx="7" fill="#5C6B89"/>
  <rect x="824" y="258" width="228" height="14" rx="7" fill="#495B77"/>
  <rect x="824" y="292" width="228" height="14" rx="7" fill="#495B77"/>
  <rect x="824" y="326" width="228" height="14" rx="7" fill="#495B77"/>
  <rect x="824" y="364" width="126" height="36" rx="14" fill="#F15E7A"/>

  <rect x="114" y="474" width="970" height="146" rx="26" fill="#FFFBFA" stroke="#F3E7E5"/>
  <rect x="146" y="510" width="218" height="74" rx="18" fill="white" stroke="#F3E4E1"/>
  <rect x="384" y="510" width="218" height="74" rx="18" fill="white" stroke="#F3E4E1"/>
  <rect x="622" y="510" width="218" height="74" rx="18" fill="white" stroke="#F3E4E1"/>
  <rect x="860" y="510" width="192" height="74" rx="18" fill="#131A28"/>

  <text x="95" y="94" fill="white" font-family="Poppins, Arial, sans-serif" font-size="13" font-weight="700" letter-spacing="2">HARBORLINE CONCIERGE</text>
  <text x="120" y="166" fill="#AA6A5A" font-family="Poppins, Arial, sans-serif" font-size="12" font-weight="700" letter-spacing="1.8">TEMPLATE 5 PREVIEW</text>
</svg>
