<svg width="1200" height="700" viewBox="0 0 1200 700" fill="none" xmlns="http://www.w3.org/2000/svg">
  <defs>
    <linearGradient id="bg2" x1="0" y1="0" x2="1200" y2="700" gradientUnits="userSpaceOnUse">
      <stop stop-color="#FFF6EC"/>
      <stop offset="0.52" stop-color="#FFFFFF"/>
      <stop offset="1" stop-color="#FCF5EA"/>
    </linearGradient>
  </defs>

  <rect width="1200" height="700" fill="url(#bg2)"/>
  <rect x="56" y="46" width="1088" height="70" rx="24" fill="#2B2118"/>
  <rect x="88" y="69" width="176" height="24" rx="12" fill="#7A5C2E"/>
  <rect x="788" y="70" width="324" height="22" rx="11" fill="#5A4630"/>

  <rect x="72" y="142" width="1056" height="510" rx="34" fill="white" stroke="#EADFCC"/>

  <rect x="112" y="182" width="676" height="286" rx="30" fill="#FAF1E2" stroke="#E8D9BE"/>
  <rect x="146" y="220" width="216" height="16" rx="8" fill="#C6A879"/>
  <rect x="146" y="252" width="458" height="44" rx="16" fill="#B7925D"/>
  <rect x="146" y="312" width="318" height="16" rx="8" fill="#D2BE9C"/>
  <rect x="146" y="350" width="186" height="44" rx="16" fill="#7A5C2E"/>
  <rect x="348" y="350" width="186" height="44" rx="16" fill="white" stroke="#D8C3A3"/>

  <rect x="816" y="182" width="274" height="286" rx="30" fill="#FFF9F1" stroke="#E8D8BE"/>
  <rect x="846" y="218" width="214" height="16" rx="8" fill="#D7C4A5"/>
  <rect x="846" y="250" width="214" height="16" rx="8" fill="#D7C4A5"/>
  <rect x="846" y="282" width="214" height="16" rx="8" fill="#D7C4A5"/>
  <rect x="846" y="314" width="152" height="38" rx="14" fill="#7A5C2E"/>

  <rect x="112" y="492" width="978" height="126" rx="24" fill="#FFF9F1" stroke="#E8DCC7"/>
  <rect x="146" y="522" width="210" height="68" rx="16" fill="white" stroke="#E4D7C2"/>
  <rect x="378" y="522" width="210" height="68" rx="16" fill="white" stroke="#E4D7C2"/>
  <rect x="610" y="522" width="210" height="68" rx="16" fill="white" stroke="#E4D7C2"/>
  <rect x="842" y="522" width="214" height="68" rx="16" fill="#2B2118"/>

  <text x="95" y="96" fill="white" font-family="Merriweather, Georgia, serif" font-size="13" font-weight="700" letter-spacing="2">CLASSIC PHARMACY</text>
  <text x="118" y="166" fill="#8A6A44" font-family="Poppins, Arial, sans-serif" font-size="12" font-weight="700" letter-spacing="1.8">TEMPLATE 2 PREVIEW</text>
</svg>
